<svg xmlns="http://www.w3.org/2000/svg" xmlns:xlink="http://www.w3.org/1999/xlink" width="2000" zoomAndPan="magnify" viewBox="0 0 1500 1499.999933" height="2000" preserveAspectRatio="xMidYMid meet" version="1.0"><defs><filter x="0%" y="0%" width="100%" height="100%" id="5531d312fb"><feColorMatrix values="0 0 0 0 1 0 0 0 0 1 0 0 0 0 1 0 0 0 1 0" color-interpolation-filters="sRGB"/></filter><g/><clipPath id="8b25744efd"><path d="M 0 0 L 1500 0 L 1500 1500 L 0 1500 Z M 0 0 " clip-rule="nonzero"/></clipPath><linearGradient x1="1051.71899" gradientTransform="matrix(0.898441, 0, 0, 0.898445, -195.113621, 138.145749)" y1="-153.760948" x2="1051.71899" gradientUnits="userSpaceOnUse" y2="1515.790236" id="926d195a36"><stop stop-opacity="1" stop-color="rgb(8.450317%, 71.859741%, 65.489197%)" offset="0"/><stop stop-opacity="1" stop-color="rgb(8.59375%, 71.789551%, 65.58075%)" offset="0.015625"/><stop stop-opacity="1" stop-color="rgb(8.882141%, 71.647644%, 65.763855%)" offset="0.03125"/><stop stop-opacity="1" stop-color="rgb(9.170532%, 71.507263%, 65.948486%)" offset="0.046875"/><stop stop-opacity="1" stop-color="rgb(9.458923%, 71.365356%, 66.133118%)" offset="0.0625"/><stop stop-opacity="1" stop-color="rgb(9.747314%, 71.224976%, 66.316223%)" offset="0.078125"/><stop stop-opacity="1" stop-color="rgb(10.035706%, 71.083069%, 66.500854%)" offset="0.09375"/><stop stop-opacity="1" stop-color="rgb(10.324097%, 70.942688%, 66.68396%)" offset="0.109375"/><stop stop-opacity="1" stop-color="rgb(10.612488%, 70.800781%, 66.868591%)" offset="0.125"/><stop stop-opacity="1" stop-color="rgb(10.900879%, 70.6604%, 67.053223%)" offset="0.140625"/><stop stop-opacity="1" stop-color="rgb(11.18927%, 70.518494%, 67.236328%)" offset="0.15625"/><stop stop-opacity="1" stop-color="rgb(11.477661%, 70.378113%, 67.420959%)" offset="0.171875"/><stop stop-opacity="1" stop-color="rgb(11.766052%, 70.236206%, 67.604065%)" offset="0.1875"/><stop stop-opacity="1" stop-color="rgb(12.054443%, 70.095825%, 67.788696%)" offset="0.203125"/><stop stop-opacity="1" stop-color="rgb(12.342834%, 69.953918%, 67.973328%)" offset="0.21875"/><stop stop-opacity="1" stop-color="rgb(12.631226%, 69.813538%, 68.156433%)" offset="0.234375"/><stop stop-opacity="1" stop-color="rgb(12.919617%, 69.671631%, 68.341064%)" offset="0.25"/><stop stop-opacity="1" stop-color="rgb(13.208008%, 69.53125%, 68.525696%)" offset="0.265625"/><stop stop-opacity="1" stop-color="rgb(13.496399%, 69.389343%, 68.708801%)" offset="0.28125"/><stop stop-opacity="1" stop-color="rgb(13.78479%, 69.248962%, 68.893433%)" offset="0.296875"/><stop stop-opacity="1" stop-color="rgb(14.073181%, 69.107056%, 69.076538%)" offset="0.3125"/><stop stop-opacity="1" stop-color="rgb(14.361572%, 68.966675%, 69.261169%)" offset="0.328125"/><stop stop-opacity="1" stop-color="rgb(14.649963%, 68.824768%, 69.445801%)" offset="0.34375"/><stop stop-opacity="1" stop-color="rgb(14.938354%, 68.684387%, 69.628906%)" offset="0.359375"/><stop stop-opacity="1" stop-color="rgb(15.226746%, 68.54248%, 69.813538%)" offset="0.375"/><stop stop-opacity="1" stop-color="rgb(15.515137%, 68.4021%, 69.996643%)" offset="0.390625"/><stop stop-opacity="1" stop-color="rgb(15.803528%, 68.260193%, 70.181274%)" offset="0.40625"/><stop stop-opacity="1" stop-color="rgb(16.091919%, 68.119812%, 70.365906%)" offset="0.421875"/><stop stop-opacity="1" stop-color="rgb(16.38031%, 67.977905%, 70.549011%)" offset="0.4375"/><stop stop-opacity="1" stop-color="rgb(16.668701%, 67.837524%, 70.733643%)" offset="0.453125"/><stop stop-opacity="1" stop-color="rgb(16.957092%, 67.695618%, 70.916748%)" offset="0.46875"/><stop stop-opacity="1" stop-color="rgb(17.245483%, 67.555237%, 71.101379%)" offset="0.484375"/><stop stop-opacity="1" stop-color="rgb(17.533875%, 67.41333%, 71.286011%)" offset="0.5"/><stop stop-opacity="1" stop-color="rgb(17.822266%, 67.272949%, 71.469116%)" offset="0.515625"/><stop stop-opacity="1" stop-color="rgb(18.110657%, 67.131042%, 71.653748%)" offset="0.53125"/><stop stop-opacity="1" stop-color="rgb(18.399048%, 66.990662%, 71.836853%)" offset="0.546875"/><stop stop-opacity="1" stop-color="rgb(18.687439%, 66.848755%, 72.021484%)" offset="0.5625"/><stop stop-opacity="1" stop-color="rgb(18.97583%, 66.708374%, 72.206116%)" offset="0.578125"/><stop stop-opacity="1" stop-color="rgb(19.264221%, 66.566467%, 72.389221%)" offset="0.59375"/><stop stop-opacity="1" stop-color="rgb(19.552612%, 66.426086%, 72.573853%)" offset="0.609375"/><stop stop-opacity="1" stop-color="rgb(19.841003%, 66.28418%, 72.756958%)" offset="0.625"/><stop stop-opacity="1" stop-color="rgb(20.129395%, 66.143799%, 72.941589%)" offset="0.640625"/><stop stop-opacity="1" stop-color="rgb(20.417786%, 66.001892%, 73.126221%)" offset="0.65625"/><stop stop-opacity="1" stop-color="rgb(20.706177%, 65.861511%, 73.309326%)" offset="0.671875"/><stop stop-opacity="1" stop-color="rgb(20.994568%, 65.719604%, 73.493958%)" offset="0.6875"/><stop stop-opacity="1" stop-color="rgb(21.282959%, 65.579224%, 73.678589%)" offset="0.703125"/><stop stop-opacity="1" stop-color="rgb(21.57135%, 65.437317%, 73.861694%)" offset="0.71875"/><stop stop-opacity="1" stop-color="rgb(21.859741%, 65.296936%, 74.046326%)" offset="0.734375"/><stop stop-opacity="1" stop-color="rgb(22.148132%, 65.155029%, 74.229431%)" offset="0.75"/><stop stop-opacity="1" stop-color="rgb(22.436523%, 65.014648%, 74.414062%)" offset="0.765625"/><stop stop-opacity="1" stop-color="rgb(22.724915%, 64.872742%, 74.598694%)" offset="0.78125"/><stop stop-opacity="1" stop-color="rgb(23.013306%, 64.732361%, 74.781799%)" offset="0.796875"/><stop stop-opacity="1" stop-color="rgb(23.301697%, 64.590454%, 74.966431%)" offset="0.8125"/><stop stop-opacity="1" stop-color="rgb(23.590088%, 64.450073%, 75.149536%)" offset="0.828125"/><stop stop-opacity="1" stop-color="rgb(23.878479%, 64.308167%, 75.334167%)" offset="0.84375"/><stop stop-opacity="1" stop-color="rgb(24.16687%, 64.167786%, 75.518799%)" offset="0.859375"/><stop stop-opacity="1" stop-color="rgb(24.455261%, 64.025879%, 75.701904%)" offset="0.875"/><stop stop-opacity="1" stop-color="rgb(24.743652%, 63.885498%, 75.886536%)" offset="0.890625"/><stop stop-opacity="1" stop-color="rgb(25.032043%, 63.743591%, 76.069641%)" offset="0.90625"/><stop stop-opacity="1" stop-color="rgb(25.320435%, 63.60321%, 76.254272%)" offset="0.921875"/><stop stop-opacity="1" stop-color="rgb(25.608826%, 63.461304%, 76.438904%)" offset="0.9375"/><stop stop-opacity="1" stop-color="rgb(25.897217%, 63.320923%, 76.622009%)" offset="0.953125"/><stop stop-opacity="1" stop-color="rgb(26.15509%, 63.194275%, 76.786804%)" offset="0.96875"/><stop stop-opacity="1" stop-color="rgb(26.269531%, 63.139343%, 76.858521%)" offset="1"/></linearGradient><clipPath id="9f1dcb82c5"><rect x="0" width="1500" y="0" height="1500"/></clipPath><clipPath id="494c771b18"><rect x="0" width="1500" y="0" height="1500"/></clipPath><clipPath id="a5677ca4f9"><rect x="0" width="1500" y="0" height="1500"/></clipPath><mask id="c102a5609d"><g filter="url(#5531d312fb)"><g transform="matrix(1, 0, 0, 1, 0, 0.000000000000112861)"><g clip-path="url(#a5677ca4f9)"><g transform="matrix(1, 0, 0, 1, 0, 0.000000000000112861)"><g clip-path="url(#494c771b18)"><g fill="#000000" fill-opacity="1"><g transform="translate(197.851173, 1237.882596)"><g><path d="M 666.765625 134.84375 L 436.015625 134.84375 C 417.035156 134.84375 403.300781 130.597656 394.8125 122.109375 C 386.320312 113.617188 382.078125 99.882812 382.078125 80.90625 L 382.078125 -1.5 C 266.203125 -18.476562 188.035156 -53.1875 147.578125 -105.625 C 107.128906 -158.070312 86.90625 -221.753906 86.90625 -296.671875 L 86.90625 -794.109375 C 86.90625 -840.054688 93.644531 -881.757812 107.125 -919.21875 C 120.613281 -956.675781 144.585938 -988.890625 179.046875 -1015.859375 C 213.515625 -1042.828125 261.210938 -1063.800781 322.140625 -1078.78125 C 383.078125 -1093.769531 459.992188 -1101.265625 552.890625 -1101.265625 C 645.785156 -1101.265625 722.445312 -1093.769531 782.875 -1078.78125 C 843.3125 -1063.800781 890.757812 -1042.828125 925.21875 -1015.859375 C 959.6875 -988.890625 983.660156 -956.675781 997.140625 -919.21875 C 1010.628906 -881.757812 1017.375 -840.054688 1017.375 -794.109375 L 1017.375 -296.671875 C 1017.375 -258.710938 1012.878906 -223.5 1003.890625 -191.03125 C 994.898438 -158.570312 979.414062 -129.851562 957.4375 -104.875 C 935.46875 -79.90625 905.253906 -58.429688 866.796875 -40.453125 C 828.335938 -22.472656 779.640625 -9.488281 720.703125 -1.5 L 720.703125 80.90625 C 720.703125 99.882812 716.457031 113.617188 707.96875 122.109375 C 699.476562 130.597656 685.742188 134.84375 666.765625 134.84375 Z M 427.03125 -329.640625 C 427.03125 -309.660156 434.519531 -292.925781 449.5 -279.4375 C 464.488281 -265.957031 498.953125 -259.21875 552.890625 -259.21875 C 606.828125 -259.21875 641.285156 -265.957031 656.265625 -279.4375 C 671.253906 -292.925781 678.75 -309.660156 678.75 -329.640625 L 678.75 -738.671875 C 678.75 -757.648438 671.253906 -773.878906 656.265625 -787.359375 C 641.285156 -800.847656 606.828125 -807.59375 552.890625 -807.59375 C 498.953125 -807.59375 464.488281 -800.847656 449.5 -787.359375 C 434.519531 -773.878906 427.03125 -757.648438 427.03125 -738.671875 Z M 427.03125 -329.640625 "/></g></g></g><g fill="#000000" fill-opacity="1"><g transform="translate(1302.129491, 1237.882596)"><g/></g></g></g></g></g></g></g></mask><clipPath id="5497faa14d"><path d="M 0 0 L 1500 0 L 1500 1500 L 0 1500 Z M 0 0 " clip-rule="nonzero"/></clipPath><clipPath id="7315987da3"><rect x="0" width="1500" y="0" height="1500"/></clipPath><clipPath id="35c96cdaf9"><rect x="0" width="1500" y="0" height="1500"/></clipPath><clipPath id="ef981d85be"><rect x="0" width="1500" y="0" height="1500"/></clipPath></defs><g transform="matrix(1, 0, 0, 1, 0, 0.000000000000112861)"><g clip-path="url(#ef981d85be)"><g transform="matrix(1, 0, 0, 1, 0, 0.000000000000112861)"><g clip-path="url(#35c96cdaf9)"><g mask="url(#c102a5609d)"><g transform="matrix(1, 0, 0, 1, 0, 0.000000000000112861)"><g clip-path="url(#7315987da3)"><g clip-path="url(#5497faa14d)"><rect x="-805.2" fill="url(#926d195a36)" width="3110.4" height="3110.399862" y="-805.199964"/></g></g></g></g></g></g></g></g></svg>